<?xml version="1.0" encoding="UTF-8" standalone="no"?>
<!DOCTYPE svg PUBLIC "-//W3C//DTD SVG 1.1//EN" "http://www.w3.org/Graphics/SVG/1.1/DTD/svg11.dtd">
<svg width="100%" height="100%" viewBox="0 0 501 501" version="1.1" xmlns="http://www.w3.org/2000/svg" xmlns:xlink="http://www.w3.org/1999/xlink" xml:space="preserve" xmlns:serif="http://www.serif.com/" style="fill-rule:evenodd;clip-rule:evenodd;stroke-linejoin:round;stroke-miterlimit:1.5;">
    <g id="g962">
    </g>
    <rect id="Artboard3" x="0" y="0" width="501" height="501" style="fill:none;"/>
    <g id="Artboard31" serif:id="Artboard3">
        <g transform="matrix(1.21143,0,0,1.18082,-82.5706,-17.2299)">
            <rect x="100.49" y="49.812" width="320.714" height="386.054" style="fill:rgb(176,156,118);"/>
        </g>
        <g transform="matrix(2,0,0,1,-50.1536,0)">
            <path d="M44.66,41.589L50.154,20.213L50.154,41.589L44.66,41.589Z" style="fill:rgb(176,156,118);"/>
        </g>
        <g transform="matrix(1,0,0,2.61907,-17.0733,-771.068)">
            <path d="M444.761,476.177L450.255,476.177L444.761,484.339L444.761,476.177Z" style="fill:rgb(176,156,118);"/>
        </g>
        <g transform="matrix(1.1943,0,0,1.18082,-69.8614,-38.6053)">
            <rect x="100.49" y="49.812" width="320.714" height="386.054" style="fill:rgb(195,177,143);"/>
        </g>
        <g transform="matrix(1.15169,0,0,1.04899,-51.9149,17.4198)">
            <rect x="100.49" y="49.812" width="320.714" height="386.054" style="fill:rgb(224,221,160);"/>
        </g>
        <g transform="matrix(1.21143,0,0,0.154773,-68.2117,12.5038)">
            <rect x="100.49" y="49.812" width="320.714" height="386.054" style="fill:rgb(197,191,73);"/>
        </g>
        <g transform="matrix(1.21143,0,0,0.154773,-53.918,-4.15766)">
            <rect x="100.49" y="49.812" width="320.714" height="386.054" style="fill:rgb(234,228,108);"/>
        </g>
        <g transform="matrix(2.60175,0,0,2.04148,-92.7955,-13.8007)">
            <path d="M61.733,8.5L56.239,16.661L61.733,16.661L61.733,8.5Z" style="fill:rgb(197,191,73);"/>
        </g>
        <g transform="matrix(2.60175,0,0,1.40676,-715.112,-32.7099)">
            <path d="M444.761,76.412L450.255,68.251L444.761,68.251L444.761,76.412Z" style="fill:rgb(197,191,73);"/>
        </g>
        <g transform="matrix(1.17204,0,0,1.02233,-60.4876,29.0401)">
            <rect x="100.49" y="49.812" width="320.714" height="386.054" style="fill:rgb(255,252,191);"/>
        </g>
        <g transform="matrix(1,0,0,1,0,-1.99572)">
            <path d="M57.291,153.407L433.182,153.407" style="fill:none;stroke:rgb(255,213,222);stroke-width:12px;"/>
        </g>
        <g transform="matrix(1,0,0,1,0,48.0043)">
            <path d="M57.291,153.407L433.182,153.407" style="fill:none;stroke:rgb(255,213,222);stroke-width:12px;"/>
        </g>
        <g transform="matrix(1,0,0,1,0,98.0043)">
            <path d="M57.291,153.407L433.182,153.407" style="fill:none;stroke:rgb(255,213,222);stroke-width:12px;"/>
        </g>
        <g transform="matrix(1,0,0,1,0,148.004)">
            <path d="M57.291,153.407L433.182,153.407" style="fill:none;stroke:rgb(255,213,222);stroke-width:12px;"/>
        </g>
        <g transform="matrix(1,0,0,1,0,198.004)">
            <path d="M57.291,153.407L433.182,153.407" style="fill:none;stroke:rgb(255,213,222);stroke-width:12px;"/>
        </g>
        <g transform="matrix(1,0,0,1,0,248.004)">
            <path d="M57.291,153.407L433.182,153.407" style="fill:none;stroke:rgb(255,213,222);stroke-width:12px;"/>
        </g>
        <g transform="matrix(1,0,0,1,4,0)">
            <path d="M103.563,474.638L106.958,79.964" style="fill:none;stroke:rgb(215,215,255);stroke-width:19px;"/>
        </g>
        <g transform="matrix(1.024,0,0,0.513634,-13.389,45.5213)">
            <path d="M75.398,61.662L75.398,160.117L121.47,127.357L165.705,169.935L214.895,122.343L256.451,169.935L306.796,121.791L342.975,169.935L375.69,121.832L418.15,169.935L436.104,147.564L436.104,61.662L75.398,61.662Z" style="fill:rgb(224,221,160);"/>
        </g>
        <g transform="matrix(1,0,0,0.513634,-2.71435,37.9452)">
            <path d="M75.398,71.266L75.398,160.117L121.47,127.357L165.705,169.935L214.895,122.343L256.451,169.935L306.796,121.791L342.975,169.935L375.69,121.832L418.15,169.935L444.761,139.267L444.761,71.266L75.398,71.266Z" style="fill:rgb(255,253,205);"/>
        </g>
        <g transform="matrix(0.999932,0.00786482,0.00786482,0.0855585,14.0093,66.8671)">
            <path d="M103.563,474.638L106.958,79.964" style="fill:none;stroke:rgb(213,214,255);stroke-width:25.15px;"/>
        </g>
        <path d="M134.781,111.283L118.756,103.36L110.731,106.291L132.138,118.819L134.781,111.283Z" style="fill:rgb(224,221,160);"/>
    </g>
</svg>
